<svg xmlns="http://www.w3.org/2000/svg" width="1280" height="720" viewBox="0 0 1280 720" preserveAspectRatio="xMidYMid slice"><rect width="1280" height="720" fill="#000018"></rect><rect x="0" y="0" width="40" height="40" fill="#FFCC00" opacity="0.10"></rect><rect x="120" y="0" width="40" height="40" fill="#3CBCFC" opacity="0.10"></rect><rect x="240" y="0" width="40" height="40" fill="#E80000" opacity="0.10"></rect><rect x="360" y="0" width="40" height="40" fill="#00E800" opacity="0.10"></rect><rect x="480" y="0" width="40" height="40" fill="#FFCC00" opacity="0.10"></rect><rect x="600" y="0" width="40" height="40" fill="#3CBCFC" opacity="0.10"></rect><rect x="720" y="0" width="40" height="40" fill="#E80000" opacity="0.10"></rect><rect x="840" y="0" width="40" height="40" fill="#00E800" opacity="0.10"></rect><rect x="960" y="0" width="40" height="40" fill="#FFCC00" opacity="0.10"></rect><rect x="1080" y="0" width="40" height="40" fill="#3CBCFC" opacity="0.10"></rect><rect x="1200" y="0" width="40" height="40" fill="#E80000" opacity="0.10"></rect><rect x="0" y="40" width="40" height="40" fill="#3CBCFC" opacity="0.10"></rect><rect x="120" y="40" width="40" height="40" fill="#E80000" opacity="0.10"></rect><rect x="240" y="40" width="40" height="40" fill="#00E800" opacity="0.10"></rect><rect x="360" y="40" width="40" height="40" fill="#FFCC00" opacity="0.10"></rect><rect x="480" y="40" width="40" height="40" fill="#3CBCFC" opacity="0.10"></rect><rect x="600" y="40" width="40" height="40" fill="#E80000" opacity="0.10"></rect><rect x="720" y="40" width="40" height="40" fill="#00E800" opacity="0.10"></rect><rect x="840" y="40" width="40" height="40" fill="#FFCC00" opacity="0.10"></rect><rect x="960" y="40" width="40" height="40" fill="#3CBCFC" opacity="0.10"></rect><rect x="1080" y="40" width="40" height="40" fill="#E80000" opacity="0.10"></rect><rect x="1200" y="40" width="40" height="40" fill="#00E800" opacity="0.10"></rect><rect x="0" y="80" width="40" height="40" fill="#E80000" opacity="0.10"></rect><rect x="120" y="80" width="40" height="40" fill="#00E800" opacity="0.10"></rect><rect x="240" y="80" width="40" height="40" fill="#FFCC00" opacity="0.10"></rect><rect x="360" y="80" width="40" height="40" fill="#3CBCFC" opacity="0.10"></rect><rect x="480" y="80" width="40" height="40" fill="#E80000" opacity="0.10"></rect><rect x="600" y="80" width="40" height="40" fill="#00E800" opacity="0.10"></rect><rect x="720" y="80" width="40" height="40" fill="#FFCC00" opacity="0.10"></rect><rect x="840" y="80" width="40" height="40" fill="#3CBCFC" opacity="0.10"></rect><rect x="960" y="80" width="40" height="40" fill="#E80000" opacity="0.10"></rect><rect x="1080" y="80" width="40" height="40" fill="#00E800" opacity="0.10"></rect><rect x="1200" y="80" width="40" height="40" fill="#FFCC00" opacity="0.10"></rect><rect x="0" y="120" width="40" height="40" fill="#00E800" opacity="0.10"></rect><rect x="120" y="120" width="40" height="40" fill="#FFCC00" opacity="0.10"></rect><rect x="240" y="120" width="40" height="40" fill="#3CBCFC" opacity="0.10"></rect><rect x="360" y="120" width="40" height="40" fill="#E80000" opacity="0.10"></rect><rect x="480" y="120" width="40" height="40" fill="#00E800" opacity="0.10"></rect><rect x="600" y="120" width="40" height="40" fill="#FFCC00" opacity="0.10"></rect><rect x="720" y="120" width="40" height="40" fill="#3CBCFC" opacity="0.10"></rect><rect x="840" y="120" width="40" height="40" fill="#E80000" opacity="0.10"></rect><rect x="960" y="120" width="40" height="40" fill="#00E800" opacity="0.10"></rect><rect x="1080" y="120" width="40" height="40" fill="#FFCC00" opacity="0.10"></rect><rect x="1200" y="120" width="40" height="40" fill="#3CBCFC" opacity="0.10"></rect><rect x="0" y="160" width="40" height="40" fill="#FFCC00" opacity="0.10"></rect><rect x="120" y="160" width="40" height="40" fill="#3CBCFC" opacity="0.10"></rect><rect x="240" y="160" width="40" height="40" fill="#E80000" opacity="0.10"></rect><rect x="360" y="160" width="40" height="40" fill="#00E800" opacity="0.10"></rect><rect x="480" y="160" width="40" height="40" fill="#FFCC00" opacity="0.10"></rect><rect x="600" y="160" width="40" height="40" fill="#3CBCFC" opacity="0.10"></rect><rect x="720" y="160" width="40" height="40" fill="#E80000" opacity="0.10"></rect><rect x="840" y="160" width="40" height="40" fill="#00E800" opacity="0.10"></rect><rect x="960" y="160" width="40" height="40" fill="#FFCC00" opacity="0.10"></rect><rect x="1080" y="160" width="40" height="40" fill="#3CBCFC" opacity="0.10"></rect><rect x="1200" y="160" width="40" height="40" fill="#E80000" opacity="0.10"></rect><rect x="0" y="200" width="40" height="40" fill="#3CBCFC" opacity="0.10"></rect><rect x="120" y="200" width="40" height="40" fill="#E80000" opacity="0.10"></rect><rect x="240" y="200" width="40" height="40" fill="#00E800" opacity="0.10"></rect><rect x="360" y="200" width="40" height="40" fill="#FFCC00" opacity="0.10"></rect><rect x="480" y="200" width="40" height="40" fill="#3CBCFC" opacity="0.10"></rect><rect x="600" y="200" width="40" height="40" fill="#E80000" opacity="0.10"></rect><rect x="720" y="200" width="40" height="40" fill="#00E800" opacity="0.10"></rect><rect x="840" y="200" width="40" height="40" fill="#FFCC00" opacity="0.10"></rect><rect x="960" y="200" width="40" height="40" fill="#3CBCFC" opacity="0.10"></rect><rect x="1080" y="200" width="40" height="40" fill="#E80000" opacity="0.10"></rect><rect x="1200" y="200" width="40" height="40" fill="#00E800" opacity="0.10"></rect><rect x="0" y="240" width="40" height="40" fill="#E80000" opacity="0.10"></rect><rect x="120" y="240" width="40" height="40" fill="#00E800" opacity="0.10"></rect><rect x="240" y="240" width="40" height="40" fill="#FFCC00" opacity="0.10"></rect><rect x="360" y="240" width="40" height="40" fill="#3CBCFC" opacity="0.10"></rect><rect x="480" y="240" width="40" height="40" fill="#E80000" opacity="0.10"></rect><rect x="600" y="240" width="40" height="40" fill="#00E800" opacity="0.10"></rect><rect x="720" y="240" width="40" height="40" fill="#FFCC00" opacity="0.10"></rect><rect x="840" y="240" width="40" height="40" fill="#3CBCFC" opacity="0.10"></rect><rect x="960" y="240" width="40" height="40" fill="#E80000" opacity="0.10"></rect><rect x="1080" y="240" width="40" height="40" fill="#00E800" opacity="0.10"></rect><rect x="1200" y="240" width="40" height="40" fill="#FFCC00" opacity="0.10"></rect><rect x="0" y="280" width="40" height="40" fill="#00E800" opacity="0.10"></rect><rect x="120" y="280" width="40" height="40" fill="#FFCC00" opacity="0.10"></rect><rect x="240" y="280" width="40" height="40" fill="#3CBCFC" opacity="0.10"></rect><rect x="360" y="280" width="40" height="40" fill="#E80000" opacity="0.10"></rect><rect x="480" y="280" width="40" height="40" fill="#00E800" opacity="0.10"></rect><rect x="600" y="280" width="40" height="40" fill="#FFCC00" opacity="0.10"></rect><rect x="720" y="280" width="40" height="40" fill="#3CBCFC" opacity="0.10"></rect><rect x="840" y="280" width="40" height="40" fill="#E80000" opacity="0.10"></rect><rect x="960" y="280" width="40" height="40" fill="#00E800" opacity="0.10"></rect><rect x="1080" y="280" width="40" height="40" fill="#FFCC00" opacity="0.10"></rect><rect x="1200" y="280" width="40" height="40" fill="#3CBCFC" opacity="0.10"></rect><rect x="0" y="320" width="40" height="40" fill="#FFCC00" opacity="0.10"></rect><rect x="120" y="320" width="40" height="40" fill="#3CBCFC" opacity="0.10"></rect><rect x="240" y="320" width="40" height="40" fill="#E80000" opacity="0.10"></rect><rect x="360" y="320" width="40" height="40" fill="#00E800" opacity="0.10"></rect><rect x="480" y="320" width="40" height="40" fill="#FFCC00" opacity="0.10"></rect><rect x="600" y="320" width="40" height="40" fill="#3CBCFC" opacity="0.10"></rect><rect x="720" y="320" width="40" height="40" fill="#E80000" opacity="0.10"></rect><rect x="840" y="320" width="40" height="40" fill="#00E800" opacity="0.10"></rect><rect x="960" y="320" width="40" height="40" fill="#FFCC00" opacity="0.10"></rect><rect x="1080" y="320" width="40" height="40" fill="#3CBCFC" opacity="0.10"></rect><rect x="1200" y="320" width="40" height="40" fill="#E80000" opacity="0.10"></rect><rect x="0" y="360" width="40" height="40" fill="#3CBCFC" opacity="0.10"></rect><rect x="120" y="360" width="40" height="40" fill="#E80000" opacity="0.10"></rect><rect x="240" y="360" width="40" height="40" fill="#00E800" opacity="0.10"></rect><rect x="360" y="360" width="40" height="40" fill="#FFCC00" opacity="0.10"></rect><rect x="480" y="360" width="40" height="40" fill="#3CBCFC" opacity="0.10"></rect><rect x="600" y="360" width="40" height="40" fill="#E80000" opacity="0.10"></rect><rect x="720" y="360" width="40" height="40" fill="#00E800" opacity="0.10"></rect><rect x="840" y="360" width="40" height="40" fill="#FFCC00" opacity="0.10"></rect><rect x="960" y="360" width="40" height="40" fill="#3CBCFC" opacity="0.10"></rect><rect x="1080" y="360" width="40" height="40" fill="#E80000" opacity="0.10"></rect><rect x="1200" y="360" width="40" height="40" fill="#00E800" opacity="0.10"></rect><rect x="0" y="400" width="40" height="40" fill="#E80000" opacity="0.10"></rect><rect x="120" y="400" width="40" height="40" fill="#00E800" opacity="0.10"></rect><rect x="240" y="400" width="40" height="40" fill="#FFCC00" opacity="0.10"></rect><rect x="360" y="400" width="40" height="40" fill="#3CBCFC" opacity="0.10"></rect><rect x="480" y="400" width="40" height="40" fill="#E80000" opacity="0.10"></rect><rect x="600" y="400" width="40" height="40" fill="#00E800" opacity="0.10"></rect><rect x="720" y="400" width="40" height="40" fill="#FFCC00" opacity="0.10"></rect><rect x="840" y="400" width="40" height="40" fill="#3CBCFC" opacity="0.10"></rect><rect x="960" y="400" width="40" height="40" fill="#E80000" opacity="0.10"></rect><rect x="1080" y="400" width="40" height="40" fill="#00E800" opacity="0.10"></rect><rect x="1200" y="400" width="40" height="40" fill="#FFCC00" opacity="0.10"></rect><rect x="0" y="440" width="40" height="40" fill="#00E800" opacity="0.10"></rect><rect x="120" y="440" width="40" height="40" fill="#FFCC00" opacity="0.10"></rect><rect x="240" y="440" width="40" height="40" fill="#3CBCFC" opacity="0.10"></rect><rect x="360" y="440" width="40" height="40" fill="#E80000" opacity="0.10"></rect><rect x="480" y="440" width="40" height="40" fill="#00E800" opacity="0.10"></rect><rect x="600" y="440" width="40" height="40" fill="#FFCC00" opacity="0.10"></rect><rect x="720" y="440" width="40" height="40" fill="#3CBCFC" opacity="0.10"></rect><rect x="840" y="440" width="40" height="40" fill="#E80000" opacity="0.10"></rect><rect x="960" y="440" width="40" height="40" fill="#00E800" opacity="0.10"></rect><rect x="1080" y="440" width="40" height="40" fill="#FFCC00" opacity="0.10"></rect><rect x="1200" y="440" width="40" height="40" fill="#3CBCFC" opacity="0.10"></rect><rect x="0" y="480" width="40" height="40" fill="#FFCC00" opacity="0.10"></rect><rect x="120" y="480" width="40" height="40" fill="#3CBCFC" opacity="0.10"></rect><rect x="240" y="480" width="40" height="40" fill="#E80000" opacity="0.10"></rect><rect x="360" y="480" width="40" height="40" fill="#00E800" opacity="0.10"></rect><rect x="480" y="480" width="40" height="40" fill="#FFCC00" opacity="0.10"></rect><rect x="600" y="480" width="40" height="40" fill="#3CBCFC" opacity="0.10"></rect><rect x="720" y="480" width="40" height="40" fill="#E80000" opacity="0.10"></rect><rect x="840" y="480" width="40" height="40" fill="#00E800" opacity="0.10"></rect><rect x="960" y="480" width="40" height="40" fill="#FFCC00" opacity="0.10"></rect><rect x="1080" y="480" width="40" height="40" fill="#3CBCFC" opacity="0.10"></rect><rect x="1200" y="480" width="40" height="40" fill="#E80000" opacity="0.10"></rect><rect x="0" y="520" width="40" height="40" fill="#3CBCFC" opacity="0.10"></rect><rect x="120" y="520" width="40" height="40" fill="#E80000" opacity="0.10"></rect><rect x="240" y="520" width="40" height="40" fill="#00E800" opacity="0.10"></rect><rect x="360" y="520" width="40" height="40" fill="#FFCC00" opacity="0.10"></rect><rect x="480" y="520" width="40" height="40" fill="#3CBCFC" opacity="0.10"></rect><rect x="600" y="520" width="40" height="40" fill="#E80000" opacity="0.10"></rect><rect x="720" y="520" width="40" height="40" fill="#00E800" opacity="0.10"></rect><rect x="840" y="520" width="40" height="40" fill="#FFCC00" opacity="0.10"></rect><rect x="960" y="520" width="40" height="40" fill="#3CBCFC" opacity="0.10"></rect><rect x="1080" y="520" width="40" height="40" fill="#E80000" opacity="0.10"></rect><rect x="1200" y="520" width="40" height="40" fill="#00E800" opacity="0.10"></rect><rect x="0" y="560" width="40" height="40" fill="#E80000" opacity="0.10"></rect><rect x="120" y="560" width="40" height="40" fill="#00E800" opacity="0.10"></rect><rect x="240" y="560" width="40" height="40" fill="#FFCC00" opacity="0.10"></rect><rect x="360" y="560" width="40" height="40" fill="#3CBCFC" opacity="0.10"></rect><rect x="480" y="560" width="40" height="40" fill="#E80000" opacity="0.10"></rect><rect x="600" y="560" width="40" height="40" fill="#00E800" opacity="0.10"></rect><rect x="720" y="560" width="40" height="40" fill="#FFCC00" opacity="0.10"></rect><rect x="840" y="560" width="40" height="40" fill="#3CBCFC" opacity="0.10"></rect><rect x="960" y="560" width="40" height="40" fill="#E80000" opacity="0.10"></rect><rect x="1080" y="560" width="40" height="40" fill="#00E800" opacity="0.10"></rect><rect x="1200" y="560" width="40" height="40" fill="#FFCC00" opacity="0.10"></rect><rect x="0" y="600" width="40" height="40" fill="#00E800" opacity="0.10"></rect><rect x="120" y="600" width="40" height="40" fill="#FFCC00" opacity="0.10"></rect><rect x="240" y="600" width="40" height="40" fill="#3CBCFC" opacity="0.10"></rect><rect x="360" y="600" width="40" height="40" fill="#E80000" opacity="0.10"></rect><rect x="480" y="600" width="40" height="40" fill="#00E800" opacity="0.10"></rect><rect x="600" y="600" width="40" height="40" fill="#FFCC00" opacity="0.10"></rect><rect x="720" y="600" width="40" height="40" fill="#3CBCFC" opacity="0.10"></rect><rect x="840" y="600" width="40" height="40" fill="#E80000" opacity="0.10"></rect><rect x="960" y="600" width="40" height="40" fill="#00E800" opacity="0.10"></rect><rect x="1080" y="600" width="40" height="40" fill="#FFCC00" opacity="0.10"></rect><rect x="1200" y="600" width="40" height="40" fill="#3CBCFC" opacity="0.10"></rect><rect x="0" y="640" width="40" height="40" fill="#FFCC00" opacity="0.10"></rect><rect x="120" y="640" width="40" height="40" fill="#3CBCFC" opacity="0.10"></rect><rect x="240" y="640" width="40" height="40" fill="#E80000" opacity="0.10"></rect><rect x="360" y="640" width="40" height="40" fill="#00E800" opacity="0.10"></rect><rect x="480" y="640" width="40" height="40" fill="#FFCC00" opacity="0.10"></rect><rect x="600" y="640" width="40" height="40" fill="#3CBCFC" opacity="0.10"></rect><rect x="720" y="640" width="40" height="40" fill="#E80000" opacity="0.10"></rect><rect x="840" y="640" width="40" height="40" fill="#00E800" opacity="0.10"></rect><rect x="960" y="640" width="40" height="40" fill="#FFCC00" opacity="0.10"></rect><rect x="1080" y="640" width="40" height="40" fill="#3CBCFC" opacity="0.10"></rect><rect x="1200" y="640" width="40" height="40" fill="#E80000" opacity="0.10"></rect><rect x="0" y="680" width="40" height="40" fill="#3CBCFC" opacity="0.10"></rect><rect x="120" y="680" width="40" height="40" fill="#E80000" opacity="0.10"></rect><rect x="240" y="680" width="40" height="40" fill="#00E800" opacity="0.10"></rect><rect x="360" y="680" width="40" height="40" fill="#FFCC00" opacity="0.10"></rect><rect x="480" y="680" width="40" height="40" fill="#3CBCFC" opacity="0.10"></rect><rect x="600" y="680" width="40" height="40" fill="#E80000" opacity="0.10"></rect><rect x="720" y="680" width="40" height="40" fill="#00E800" opacity="0.10"></rect><rect x="840" y="680" width="40" height="40" fill="#FFCC00" opacity="0.10"></rect><rect x="960" y="680" width="40" height="40" fill="#3CBCFC" opacity="0.10"></rect><rect x="1080" y="680" width="40" height="40" fill="#E80000" opacity="0.10"></rect><rect x="1200" y="680" width="40" height="40" fill="#00E800" opacity="0.10"></rect><circle cx="640" cy="558" r="34" fill="none" stroke="#FFCC00" stroke-width="2" opacity="0.5"></circle><circle cx="640" cy="558" r="3" fill="#FFCC00"></circle><g opacity="0.6"><circle cx="664" cy="558" r="2" fill="#FFCC00"></circle><circle cx="640" cy="582" r="2" fill="#FFCC00"></circle><circle cx="616" cy="558" r="2" fill="#FFCC00"></circle><circle cx="640" cy="534" r="2" fill="#FFCC00"></circle></g></svg>